<?xml version="1.0" encoding="UTF-8" standalone="no"?>
<!-- Created with Inkscape (http://www.inkscape.org/) -->

<svg
   xmlns:dc="http://purl.org/dc/elements/1.1/"
   xmlns:cc="http://creativecommons.org/ns#"
   xmlns:rdf="http://www.w3.org/1999/02/22-rdf-syntax-ns#"
   xmlns:svg="http://www.w3.org/2000/svg"
   xmlns="http://www.w3.org/2000/svg"
   xmlns:xlink="http://www.w3.org/1999/xlink"
   xmlns:sodipodi="http://sodipodi.sourceforge.net/DTD/sodipodi-0.dtd"
   xmlns:inkscape="http://www.inkscape.org/namespaces/inkscape"
   width="210mm"
   height="297mm"
   id="svg2"
   version="1.1"
   inkscape:version="0.48.4 r9939"
   sodipodi:docname="水平面パターン.svg"
   inkscape:export-filename="/home/tarosuke/rwm/ambient/水平面パターン.png"
   inkscape:export-xdpi="90"
   inkscape:export-ydpi="90">
  <defs
     id="defs4" />
  <sodipodi:namedview
     id="base"
     pagecolor="#ffffff"
     bordercolor="#666666"
     borderopacity="1.0"
     inkscape:pageopacity="0.0"
     inkscape:pageshadow="2"
     inkscape:zoom="0.98994949"
     inkscape:cx="292.96949"
     inkscape:cy="506.31622"
     inkscape:document-units="px"
     inkscape:current-layer="layer1"
     showgrid="false"
     inkscape:window-width="1469"
     inkscape:window-height="1180"
     inkscape:window-x="2154"
     inkscape:window-y="124"
     inkscape:window-maximized="0" />
  <metadata
     id="metadata7">
    <rdf:RDF>
      <cc:Work
         rdf:about="">
        <dc:format>image/svg+xml</dc:format>
        <dc:type
           rdf:resource="http://purl.org/dc/dcmitype/StillImage" />
        <dc:title></dc:title>
      </cc:Work>
    </rdf:RDF>
  </metadata>
  <g
     inkscape:label="レイヤー 1"
     inkscape:groupmode="layer"
     id="layer1">
    <path
       sodipodi:type="star"
       style="opacity:1;fill:none;fill-opacity:1;stroke:#000000;stroke-opacity:1;stroke-width:3;stroke-miterlimit:4;stroke-dasharray:none;stroke-linejoin:round;"
       id="path2991"
       sodipodi:sides="6"
       sodipodi:cx="149.50258"
       sodipodi:cy="203.83404"
       sodipodi:r1="125.29557"
       sodipodi:r2="108.50915"
       sodipodi:arg1="0"
       sodipodi:arg2="0.52359878"
       inkscape:flatsided="true"
       inkscape:rounded="0"
       inkscape:randomized="0"
       d="m 274.79815,203.83405 -62.64779,108.50914 -125.295566,0 -62.647786,-108.50914 62.647786,-108.509152 125.295566,0 z"
       inkscape:tile-cx="149.50258"
       inkscape:tile-cy="203.83405"
       inkscape:tile-w="250.59114"
       inkscape:tile-h="217.01829"
       inkscape:tile-x0="24.207008"
       inkscape:tile-y0="95.324898" />
    <use
       x="0"
       y="0"
       inkscape:tiled-clone-of="#path2991"
       xlink:href="#path2991"
       transform="matrix(1,0,0,1.0045836,0,-0.93429975)"
       id="use3913" />
    <use
       x="0"
       y="0"
       inkscape:tiled-clone-of="#path2991"
       xlink:href="#path2991"
       transform="matrix(1,0,0,1.0030211,0,216.40248)"
       id="use3915" />
    <use
       x="0"
       y="0"
       inkscape:tiled-clone-of="#path2991"
       xlink:href="#path2991"
       transform="matrix(1,0,0,1.0005526,0,433.92396)"
       id="use3917" />
    <use
       x="0"
       y="0"
       inkscape:tiled-clone-of="#path2991"
       xlink:href="#path2991"
       transform="matrix(1,0,0,1.0059153,0,649.84914)"
       id="use3919" />
    <use
       x="0"
       y="0"
       inkscape:tiled-clone-of="#path2991"
       xlink:href="#path2991"
       transform="matrix(1,0,0,1.0035817,187.94336,107.77907)"
       id="use3921" />
    <use
       x="0"
       y="0"
       inkscape:tiled-clone-of="#path2991"
       xlink:href="#path2991"
       transform="matrix(1,0,0,1.005921,187.94336,324.32055)"
       id="use3923" />
    <use
       x="0"
       y="0"
       inkscape:tiled-clone-of="#path2991"
       xlink:href="#path2991"
       transform="matrix(1,0,0,0.99796853,187.94336,542.95982)"
       id="use3925" />
    <use
       x="0"
       y="0"
       inkscape:tiled-clone-of="#path2991"
       xlink:href="#path2991"
       transform="matrix(1,0,0,0.99970982,187.94336,759.62318)"
       id="use3927" />
    <use
       x="0"
       y="0"
       inkscape:tiled-clone-of="#path2991"
       xlink:href="#path2991"
       transform="matrix(1,0,0,0.99843085,375.88671,217.33814)"
       id="use3929" />
    <use
       x="0"
       y="0"
       inkscape:tiled-clone-of="#path2991"
       xlink:href="#path2991"
       transform="matrix(1,0,0,1.0010139,375.88671,433.82992)"
       id="use3931" />
    <use
       x="0"
       y="0"
       inkscape:tiled-clone-of="#path2991"
       xlink:href="#path2991"
       transform="matrix(1,0,0,0.99999173,375.88671,651.05657)"
       id="use3933" />
    <use
       x="0"
       y="0"
       inkscape:tiled-clone-of="#path2991"
       xlink:href="#path2991"
       transform="matrix(1,0,0,0.99884513,375.88671,868.30858)"
       id="use3935" />
    <use
       x="0"
       y="0"
       inkscape:tiled-clone-of="#path2991"
       xlink:href="#path2991"
       transform="matrix(1,0,0,0.9972066,563.83007,326.09683)"
       id="use3937" />
    <use
       x="0"
       y="0"
       inkscape:tiled-clone-of="#path2991"
       xlink:href="#path2991"
       transform="matrix(1,0,0,0.99711796,563.83007,543.13319)"
       id="use3939" />
    <use
       x="0"
       y="0"
       inkscape:tiled-clone-of="#path2991"
       xlink:href="#path2991"
       transform="matrix(1,0,0,0.99836444,563.83007,759.89741)"
       id="use3941" />
    <use
       x="0"
       y="0"
       inkscape:tiled-clone-of="#path2991"
       xlink:href="#path2991"
       transform="matrix(1,0,0,0.99906936,563.83007,976.77202)"
       id="use3943" />
  </g>
</svg>
